<svg viewBox="0 0 4000 1000" xmlns="http://www.w3.org/2000/svg">
  <path d="M190 55l11 1c3 1 4 5 4 8-1 9 2 19-1 28l5-8c3 1 5 4 7 7l12-2c-3 8-11 16-6 25l9-9c2 5 5 12 1 17-4 6-11 8-17 11h8c2 4 3 7 6 10l12 3-12 25-10 1 15 4-1 8c3-8 12-10 19-7l-4 17-8 4-2-10 7 3-4-11c-4 7-8 14-8 23-10 2-19 5-28 11l-2-4-14-1c6 8 16 7 25 9l12-8 7 4 9-15v12c4-5 10-8 16-9l-3 9c-2 5-7 7-11 10h14l-3 9c-4 1-9 1-13 4l-21 20c-4 4-10 2-15 2-6 0-12 3-18 5l2 2 12-1c4 0 7 5 10 7l3-6 7-3 22 18 1-5c6-1 13-3 18-7l4 5 7-5 3 7h8c-2 5-5 9-8 12-6 5-3 14-4 21l-7 4-10-4-3 5 11 2-8 12c6 0 12 3 17 1 4-1 3-4 4-7 0-5 3-9 5-13 14 4 28 3 41 3-4 6-7 12-13 16-4 1-9 0-14-1l5 9-13 5 4-12c-5 5-12 6-19 5l6 9-2 2-15-8c-12-1-23 2-34 3-8 1-16 4-23 6-5 2-11 3-14 8-2 8 0 16 0 24l8-1-6-1c-1-5 6-4 10-4 7 2 14-1 21-3l-4 7c3 2 6 5 10 4 5-1 11-3 17-1l4-2h17l4 8 10-2 2 6-16-1 3 9c-8 4-13 12-21 17v3l-6 4c7 5 15 7 23 8-3 7-12 6-19 6l4 8-4 4c-3-4-7-8-13-9l2 11c-12-5-18-18-29-24l-11 4 3 4c6 1 10 5 14 8h-20c0 18-1 36 1 54l2 40 46 11c16 7 35 7 52 10 13 4 26 9 34 20 5 6 7 15 15 17 16 6 33 12 47 23 11 7 16 20 26 29 5 4 10 9 17 11 8 2 17 5 23 12 8 9 8 23 15 33 8 2 17 3 25 7 8 5 12 13 20 18l16 14c9 13 20 25 35 31 16 7 34 5 51 8 6 1 10-3 15-6 16-11 33-22 51-28l47-16c6-2 12-5 18-5h17c13-4 24-12 36-16 6-1 11-4 16-7 13 0 25-2 37-6 15-3 28 4 41 9 10 1 21 0 31 3 16 5 32-4 48-4 8 0 16 2 24 5 8 2 17-2 26-2 20-1 38 6 56 13 37 1 71 15 106 22 10 2 20-2 31-3 24-2 47 4 70 10 20 6 40 13 61 11 14-1 28 0 42 2 20 4 38 18 54 30 11 9 23 16 35 23 7 5 17 6 25 9 8 4 16 9 23 15 12 8 25 14 37 21 8 4 16 9 24 10 16 1 32-3 48-5 17-2 33 7 48 13 8 3 16 2 24 1 19-1 38 0 57 2 13 1 24 5 36 8 13 4 26 1 39 3 11 1 21 5 32 5 10-2 19-5 29-6 9-1 17-7 27-8l16 2h32c9 0 15-7 24-7 13-2 24 5 36 8 16 4 32 3 48 6 27 3 51 16 76 22 35 8 67 21 100 34l29 11c9 3 19 2 29 3 12 2 24-4 36-3 21 1 39 13 59 18 22 6 46 7 69 4 19-2 39-3 59-2 18 2 36-3 55-2 18 1 36-2 54-1 17 0 35-3 52-2 26 1 52-8 78-7 25 0 50 3 75 4 46 3 92 8 139 8 27-1 49-18 74-25 13-4 27-4 41-3 23 2 47 2 71 0 9-1 17-4 25-7 18-8 37-12 54-18 13-5 25-8 38-11 9-2 15-11 22-16 20-15 41-30 65-36 11-3 20-12 30-15 8-2 16-4 23-9 13-9 27-17 43-21 8-3 16 2 24 3 5 0 10-1 14-3l-4-9 13 3c1 3-1 9 3 10 5 3 11 3 17 4v-5c-5 0-9-2-14-3 10-12 13-28 24-39 9-4 23 1 29-9 4-10 3-24 12-32 5-6 15-8 16-16l5-18c-1-6-6-9-9-14 1-6 5-12 5-18l-1-15c8 2 14 5 21 9 9 4 19 0 27-6-6-7-14-11-21-16l7-11c5 4 10 9 17 12 6 2 12 2 18 0 2-3 4-7 1-9-3-4-8-3-13-4l-2-9c-4 2-7 7-11 8-5 1-7-6-11-8l-6 2-1-8-11-10c-2-4-2-9-2-13 17 1 29 19 48 18-1-5-3-10-7-14-5-6-14-7-20-12-3-6-1-13-3-19-4-5-10-1-15 0 0-8-5-15-9-21h11l14-7c6 0 9 5 13 8 9 9 24 11 36 9l-4-7c-9-1-18-2-26-5l6-18-11-6c-4-5-6-12-3-18 10 4 18 11 28 15 8 3 17 2 24-3 2-5-4-7-6-10l4-9-19-3 5-6-2-12c-5 1-10 4-14 8l-6-3c-8-9-13-21-21-30 7-10 0-24 8-34 5 3 9 7 12 12h14c6 4 8 11 13 16l10 1c2-5 0-14 8-15 12-1 25-7 30-19-7-2-14-5-20-9l-11 2c-11-10-25-17-34-29 4-1 8-2 12 0 9 4 17 9 27 10l-11-13v-10c-11-6-21-16-27-27l2-8c6 2 13 5 17 10 6 8 17 8 24 15 5-5 10-12 6-19-6-8-11-17-19-23l-1-4 12-5-8-8-1-8c7 2 15 6 23 7h30c1-13-14-21-25-18l-7-9 6-6c10 2 20 4 30 3 0-11-2-22-1-32 5 6 4 15 7 23 5 5 12 6 18 8l2-23 8 7c2 9 3 18 1 27 4 6 6 12 5 18l-13 12v7l21-14 20-8c-3 8-6 16-12 22-3 4-2 10-3 15h-15c-2 7-5 13-9 20 5 1 11 0 17-2 1 4-1 11 5 12l22-5c0 3 2 6 1 10-3 9-13 14-16 23-3 8-11 12-14 20 5 0 9 1 14-1 8-3 15-11 25-8-5 3-10 5-12 10 0 5 5 6 9 7l4-9c6-2 11-6 15-11 4-1 10-2 13-5 7-4 15-7 24-7-10 8-15 19-18 31-11 0-18 11-27 16l5 9c-9 1-21 1-24 11 0 7 5 11 10 14-3 6-6 12-5 18l-14 1 4 10c-7-3-13-10-19-14-6-2-7 6-9 9l-20-13c-3-2-6-5-9-4l-3 20c-1 4 3 7 6 11l-7 8c1 4 4 5 8 6 7 4 14-3 20-6l-13-11c11 1 23 2 35 5 6 2 14 1 20-1 3-3 4-7 8-9l17-11c6-3 13-2 20-2l-8-9 2-5c13 7 28 6 43 5-1-8-8-14-16-15-5 0-9-4-12-7 3-1 5-5 9-4l22 2c-1-9-3-18 0-27 2 6 2 13 5 19 3 4 9 5 14 7l2-20 7 7 2 22c0 5 3 10 2 15-4 5-13 8-10 16 10-9 22-14 35-19-5 11-13 20-15 32l-10-1-9 16h13c2 3 1 8 5 8l18-2c4 2 2 8-1 11-5 6-11 12-13 20-4 3-12 8-6 12 10 0 18-8 28-10v3c-4 3-8 5-11 9l11 4v20l-8 8c-1 6 4 10 8 13v1c-3 4-5 9-5 13l-11 1 3 9c-6-5-12-10-18-13l-4 9c-8-6-16-12-25-16 0 9-4 20 3 27l-7 7 12 6 13-7-12-8c10 0 20 2 30 4 5 1 10 1 14-1 4 0 5-5 7-8v20l-10 6 1 5 9 3v29l-14-9 2 12-8 1c0 4-2 9 0 12 6 5 13 6 20 10v9l-10-3c-2 4-7 8-4 12l14 10v5l-14 3 5 10h-12v5l13 1-6 15c-6-3-10-7-14-11l-17 3c6 9 18 12 27 18l8-6 10 5v210H0V502l32 11c16-3 34-9 50-3 18 9 39 8 58 7 15 0 29 7 43 11l-2-58-7-1 8-4c-17-8-36-7-54-6l3 7-17 3c-5 1-11-3-16-4-6 3-10 8-15 11-6 2-13-1-20-1v-6l-12 5c-7-4-16-6-25-5 0-7 2-13 4-19l-8-8 2-6c7 2 14 5 20 10a482 482 0 0110-6c-5-3-9-7-13-12l13 5 13-4c-7-2-16 0-21-5-8-6-5-17-5-25-4 0-9 0-13-2l-8-11 4-4 8 1-14-6c1-4 2-8 5-12l14-1 13-7 6 5-5-15-11-2c3-4 4-11 10-12 5-1 10 2 14 3h15l-25 13 11 13 10-5-1-2 7-5-1-11 18 8 8-8-3-5-4 4c-23-4-44-16-67-14l9-9-16-2c-7 0-10-8-16-11l-9-1v-8l4-7 10 7 11-15c8 11 23 10 35 8v-12l-10-3-8 10c-1-8-5-17-2-25l-6-8 15-7 4 5c1-5 4-9 7-12 5 6 12 8 19 10-5-10-9-22-7-33l14-11 2 8 17 3c4-4 8-8 13-9-2-3-6-5-7-9-3-6 0-12 1-17-3 2-6 6-10 7-6 1-7-6-9-10h15l-13-18h7l5-9c6 2 12 5 17 9l8-5 8 6 10-13h-19l3-6-14-2-2-17c1-4 4-6 6-9l-1 17 11-27 17 7c0-5-2-10-4-15l8 2c2-7 5-14 11-19 1-5 4-11 8-15 4 2 4 6 5 9 5-4 9-8 11-13zm3 10c-3 1 0 6 2 4 3-2 0-6-2-4zm-19 8c-2 2 2 6 4 4s-1-6-4-4zm32 30h7l1-6-8 6zm-15 1v13l5-13h-5zm5 4c-3 6 7 1 0 0zm-42 14c-3 1-2 7 1 6 4-1 3-7-1-6zm-3 17l1 4 6-13c-5 1-9 4-7 9zm13-2c-1 3 0 4 4 3 1-3-1-4-4-3zm-15 9l4 13c3-5 2-12-4-13zm-26 16c-1 4-2 8-5 12l10-6v-6h-5zm94 29c5 2 10 2 14 0l-6-11-8 11zm-74 0c-3 0-7-1-8 3h12l2-9-6 6zm-27 1c-1 3 3 6 5 4 2-3-3-6-5-4zm45 25c6 1 12 0 18-1l-3-6c-5 1-10 4-15 7zm-80-3v8c2-2 5-4 6-8-1-2-4 0-6 0zm75-1c-3 2 1 7 4 4 3-1-1-7-4-4zm-41 15l-1 6 5-4 7 8 5-1 1-9h-17zm118-1l-1 4h6v-5l-5 1zm-95 5c-1 3 0 4 3 3 1-3 0-4-3-3zm24 3l8 3-2-5-6 2zm64 5c1 7 6-3 0 0zm-165 4l5 8 3-10-8 2zm77 8c-3 1-1 6 2 5s2-7-2-5zm-51 22l11-4 1-4c-4 2-9 4-12 8zm17-5l-10 15c2 0 4 2 5 3l4-10c10-1 20-5 31-6l-10 13 10-4c-2 7-2 13 0 20 10 2 21 0 30 5l3-5-2-5 14-2c-6-8-17-10-25-5l4-5c-10-4-19-10-28-15-2-1-5 1-7 2l-3-4c-5 3-10 4-16 3zm86 12l5 8c4-4 11-5 11-11l-16 3zm34 0c-3 6 7 0 0 0zm-117 11c5 0 10-2 13-7-5 1-13 0-13 7zm83 0l-1 8c8-2 18-1 25 4 0-3 3-9-2-10-7-2-15-5-22-2zm-88 4c2 5 3 9 6 13h12l-4 7 5 6-7 8c5-3 10-4 13-9 0-6-2-12-4-18-7 1-14-3-21-7zm136 16c-1 3 0 5 4 3 1-3 0-4-4-3zm3500 8c-1 5 4 9 6 13l4-12c-4-1-7-3-10-1zM194 340c4 3 6-2 8-5l6 3-6-5c-4 1-11 2-8 7zm-139 0c0 3 5 4 6 2 1-3-4-4-6-2zm135 2c-1 3 0 4 3 3 1-3 0-4-3-3zm-44 9l15-1-4-5c-4 1-7 4-11 6zm3656-3c-1 4 0 5 4 4 1-4 0-5-4-4zM150 366c-3 2-7 5-5 9 4 3 9 2 13 1 7-1 13 2 20 2 1-4 2-8 0-11-3-4-8-5-12-7-4 4-10 4-16 6zm-8-2c-1 3 1 4 4 3 1-3 0-4-4-3zm-116 7c-2 3 3 6 5 4 2-3-2-6-5-4zm106 2l1 5c4-1 7-4 11-6l-12 1zm27 7c0 7 6-3 0 0zm3573 1c-2 3 3 6 5 3s-3-6-5-3zm-3507 1c-1 3 0 4 3 3 1-3 0-4-3-3zm3515 6c-2 3 3 5 5 3s-3-5-5-3zM45 392c3 3 2 7 1 11l12 3v-11l-8 2-1-4-4-1zm91 6l7-1v-5l-7 6zm12-5l-2 5c5-1 10-2 15-5h-13zm25-1c-4 1-3 8 1 6 3-1 3-7-1-6zm41 0l3 7 6 1 1-6-10-2zm23 2c0 7 6-3 0 0zm-75 6c-3 6 7 1 0 0zm-50 3c-3 2 2 6 4 3 3-2-1-7-4-3zm17 0c-1 4 8 2 10 0-2-3-7-2-10 0zm77 13c4 5 9 8 15 7-1-7-10-6-15-7zm16 1c-2 2 1 6 4 4 2-2-1-5-4-4zm15 7c-3 4 3 6 5 3s-3-6-5-3zm-132 12c6 0 12 1 17 3l-1-11-16 8zm-36-6c-3 3 2 8 4 5 3-3-1-8-4-5zm60 3c1 4 2 8 1 11l-12 11 28-1 35 4 1-18c-6-1-12-3-15-7h-12l-9 7-1-5c-5 1-10 0-16-2zm20 0c1 1 1 1 0 0zm3635 13c3 9 14 7 22 6 6-2 10-8 9-14-8 0-16 0-24-3-6-2-11 6-7 11zm-32-6l1 6c2-1 6 0 7-4l-8-2zm-86 7c-3 6 7 0 0 0zm36 25c-4 1-2 7 1 6 4-1 3-7-1-6zm15 13l-4 13c2 4 6 6 10 5 7-2 15-3 21-7 0-3-1-5-3-7-5-8-16-2-24-4zm161 20l10 1 5 7c3-4 10-8 8-14-1-6-8-9-11-14-5 5-15 11-12 20zm25-16l6 12 3-11-9-1zm-155 13c-4 3-7 8-12 10-9 1-17 0-26 2v5l23 4c6-2 9-9 15-10 6-2 12-3 19-3l-2-11c-6 1-13-2-17 3zm96 12c-4 3-2 8 3 9 6 0 12-3 18-2l15 6 2-6c-7-3-12-12-20-13-6 1-13 2-18 6zm114-1c-3 6 7 0 0 0zm-130 11c3 2 7 1 11 1l1-5c-4-2-13-3-12 4zm-105 17c1 4 5 4 9 5 2-5 3-11-2-16-3 3-8 6-7 11zm83 0c6 3 11 5 16 9l4-7-14-12c-4 1-6 6-5 10zm80-6c0 3 1 4 3 3 1-3 0-4-3-3zm-97 2c-4 1-7 3-10 6-2 4 0 9 4 10 6 2 12 3 18 2 5-2 6-8 2-12-3-4-8-11-14-6zm111 3c1 7 6-3 0 0zm7 4c-5 1-2 7 1 6 5-1 2-7-1-6zm-50 7v9l-20-10c0 4 1 9 3 13l-9 2c-1 5-4 10-2 16l8 2c-1-6-1-13 3-18 4 3 8 6 10 10 4 0 8-2 12 0 4 4 6 9 10 12h9l2-8c4-4 9-3 14-5 6-2 12-7 14-14-5-1-11-3-16-7l-9 2-12-10c-6 1-11 4-17 6zm-99-3c-2 1-1 6 2 4 3-1 1-6-2-4zm59 11c-7 4 3 14 9 9 3-6-4-12-9-9zm-152 11c0 3 1 6 5 7s10 3 13-1c-2-6-3-13-8-17l-10 11zm128-10c-4 1-2 7 1 6 5-1 3-7-1-6zm-137 2v6l5-2 1-4h-6zm41 1l-1 13c-1 3 1 6 4 5 6 1 14 0 14-8l-13-2 1-9-5 1zm78 0c1 4-1 10 4 12l17 4c3-1 2-4 1-6-5-7-13-10-22-10zm-3 21c0 7 3 13 6 19 2 5 8 4 13 4-1-7 3-16-4-20-4-3-11-8-15-3zm173 1l-5 5 6 9c9 1 23 0 23-11l-24-3zm-28 3l-1 6 7-1-6-5zm-7 7c-3 6 7 0 0 0zm-224 16h8l-1-8c-3 2-5 4-7 8zm152-6c-3 2 2 7 5 5 2-3-2-8-5-5zm19 15l-7-1c3 9 13 6 20 6l-3-11c-4 0-8 2-10 6zm17-4c-3 6 7 1 0 0zm13 11l-4 11c9 7 19 0 27-3-2-3-3-9-9-10l-14 2zm-182 6l8 1-1-6c-4-1-5 3-7 5zm33-3l4 18 5-3 1-16-10 1zm112 2l9 4-7 7c4 3 9 6 14 7 5 2 11-1 16-2v-7l-6-1 5-10c-10 4-21 2-31 2zm-37 0c-2 3 2 7 5 4 2-3-3-7-5-4zm90 17c-8 1-17-2-23 3 4 5 11 3 17 5 6 1 9-5 14-7l17-4-2-9h-7c-7 1-10 9-16 12zm-173-2c-3 3 2 7 5 4s-2-7-5-4zm-7 7v9c5 1 6-4 7-8l-7-1zm258 1c-3 4 6 6 6 1 0-2-4-4-6-1zm-179 5l-2 5 15-1-13-4zm90 13c2 3 5 2 8 3 1-4 2-9-2-12-5 0-6 6-6 9zm72-10l-3 9 12 7 5-5-14-11zm-15 4l-12 7c0 10 13 11 21 10 6-6-3-17-9-17zm-206 2c-3 1-1 4-1 6l7-5-6-1zm105 4l1 4 21 2c-5-6-15-3-22-6zm-117 7c0 7 5-3 0 0zm238 6l-1 8h10c0-5-4-8-9-8zm-19 2l-2 3c2 6 9-3 2-3zm-15 3c1 3-1 9 3 9l17 4c-2-9-12-14-20-13zm-293 14l-2 7c2 3 6 6 10 7 6-1 5-6 6-10-5-2-10-4-14-4zm289 3l6 15c2 4 7 5 11 3 1-5 2-13-4-16-3-4-8-5-13-2zm-151 1v4h19c-3-8-13-3-19-4zm-162 23c6 3 12 1 17-2-2 3-4 6-4 10 6-2 11-6 11-13l-14-10c-5 4-7 10-10 15zm26 14c-4 2-2 6-2 10l8-2c2-4 1-8 1-12l-7 4zm260 1l4 14c5-4 6-11 3-17l-7 3zm63 1c0 7 5-3 0 0zm9 4c1 7 6-3 0 0zm-379 4l2 9c6 1 12 0 17-3-5-5-12-5-19-6zm73 3c-2 4 1 6 5 7v-5l-5-2zm43-1c0 7 5-3 0 0zm186 2c0 7 6-3 0 0zm-6 6c-3 3 2 7 4 4s-2-7-4-4zm-296 4c-3 8-1 17 0 25 3 2 7 0 11 0 1-3 2-6 4-7l21 1 5-9c-6-3-14-3-21-2-8 1-14-5-20-8zm311 8c-1 3 0 4 3 3 1-3 0-4-3-3zm-348 7l6 9c4-2 11-2 9-7-2-7-10-3-15-2zm8 16l-9 1c4 2 8 4 12 2l19-8-4-5c-8-1-12 6-18 10zm-4 16h7c0-3 0-6-2-8-5-1-4 5-5 8zm374-5c4 5 12 2 17 2-4-5-11-4-17-2zm-407 21l9-1c1-3 0-6-2-8l-7 9zm-26-27c2-2 4-1 4 2-2 2-4 1-4-2z" style="fill: var(--c10);"/>
</svg>
