<svg viewBox="0 0 4000 1000" xmlns="http://www.w3.org/2000/svg">
  <path d="M1740 213c11 1 556 40 576 44 10 1 19 5 29 4 14-3 27-9 41-10 13-1 25 3 38 3 12-1 24 3 36 3 9 1 20 0 28 5 9 4 18 9 28 9 11 1 21-3 32-3 14 0 25 9 37 13 9 3 19 1 27-3 11-3 17-14 28-16 11-3 21 4 32 2l30-6c12-1 23-5 34-4l24 4h32c15 1 29 5 44 5 12 0 25-2 37 0l23 6c10 2 19 8 30 9 16 2 30 12 47 13 16 2 33 3 49-1 4-1 0 710 0 710H0h1146s-7-784 0-786c8-2 16-2 24 0 10 2 20 8 30 10l54 3c27 0 53-5 80-4l39 2c14 2 29 3 43-3 11-3 21-9 32-9 11-1 22 2 32 7 15 6 32 3 47-1 18-3 35-12 53-12 17-1 35 3 52 3 9 0 19 4 28 2 14-2 28-6 42-7 13-1 25 7 38 8z" style="fill: var(--c2);"/>
  <path d="M2687 271c32 36 78 61 108 62 23 0 55-22 72-43-7 15-16 27-28 35 21-4 36-15 50-29-2 5-7 11-14 18 6-2 12-6 18-11-45 42-68 44-94 48l-22 4c-4 0-10-5-10-5-46 2-81-7-104-39-1-3 0-4 1-6 1-3 0-6-2-9 1-3 3-4 5-6l-3-11c28 31 55 51 81 55-28-16-49-35-58-63zm-1491-27c17 11 32 26 49 38s39 28 54 37c12 7 24 13 37 17 17 6 41 15 62 15 36 1 75-4 112-17 22-7 76-33 99-43 19-9 46-21 55-27 13-8 22-9 19-19-1-4-13-1-15-2-4-1-8-2-7-3 1-3 9-1 23-7 8-4 20-5 17-15-1-7-18-7-31-4-16 4-38 3-48 4-11 0-22 0-16 8 3 4 28 17 27 19s-19-3-29-3h-28l-12 3c-1-1 1-2 6-6 8-7 4-11-6-12-6 0-21 3-29-6 0-1 0-2-2-2-12 3-36 6-44 5-3 0-3 5 0 6 3 2 18 3 19 5 0 2-15 8-10 13 3 2 26 5 24 7-3 2-25-1-29 0-2 1-9 5-15 4-8 0-23-6-32-5-10 1-17 15-17 20-1 2 3 5 4 6 2 1 8 0 7 2-2 4-9 2-12 3-3 2-8 11-8 15 1 3 13 5 13 7s-13 2-18 0c-6-2-16-11-21-13-3-1-10 4-10 0-1-5 20-6 28-15 9-9 20-31 22-41 2-7-1-17-5-18-3-1-15 6-30 7-20 2-67-4-94-2-29 2-74 5-91 2-15-2-38 3-18 17zm1322 33c1-2 1-4 4-4 10 0 26-2 31-1 9 3 18 4 22 10 5 5 4 17 5 25 1 14-20 31-32 30-5 0-8-2-8-2h5c12-1 32-22 23-33-7-8-38 21-47 24-2 0-4-4-5-2-2 3-16 4-19 1 0-1 12-3 10-5-2-1-14 1-18 1l-5-4c-3-2-9-1-14-1-6 0-12-4-12-4-2 5 23 13 22 14-2 2-27-8-40-14-13-5-30-9-39-14-6-4-12-10-15-15-4-6-6-14-6-19 0-2 3-5 6-6l10-1 16 2 6 1 2 5c0 3 2 14 0 14-1 0-14-14-15-13-1 2 7 13 11 17l8 9c1 1 4 1 5-2l-3-17-2-9c1-2 3-4 5-4l7-1 2 2 1 26 3 6 2 2h2c0-1-2-2-2-7l1-13 2-13c0-1 0-3 3-3 8 0 20 0 26 2l15 5 16 6c4 2-1 9-2 15l-1 17h2c1-6 7-19 12-27zm6 39c4-2 16-19 17-27l1 1-1 7h2l3-2 1 1c-4 6-19 21-22 21-1 0-2 0-1-1zm-10 0c5-3 8-8 8-15l-7 6c-1-1 5-14 12-20 2-2 7-1 7 1 3 10-10 26-15 28-4 2-5 0-5 0zm7-30c-3 4-9 19-9 22 1 1-2 0-2-2 0-4 7-18 9-21 1-1 3 0 2 1zm-38 16l1 5 2-1c0-2-2-5-3-4zm14-24c0 12-2 10-2 26h-2v-15c-1-2-6-7-7-6l-1 14c-1 1-2 0-2-1l-2-8v-9l-3-3-1 13c0 2-2 0-2-1l1-13c0-1 2-4 4-4s6 1 7 3l5 9c2-1 2-4 3-5h2zm-51 19l2 4c2 1 4 0 3-2-1-1-4-3-5-2zm105-3l-2 4h1l3-3c0-1-1-2-2-1zm-87-25v24c0 2-4 2-5 0a55 55 0 013-23c0-1 2-3 2-1z" style="fill: var(--c3);"/>
</svg>
