<svg viewBox="0 0 4000 1000" xmlns="http://www.w3.org/2000/svg">
  <path d="M0 408s1229-15 1235-22c8-10 23-16 37-15 19 0 37-2 56-5 20-3 40-2 60-6 31-3 61-6 91-15 23-7 48-9 71-17 40-13 80-24 119-41 20-7 40-15 61-21 29-10 61-6 90 2l44 8c22 3 44 9 65 13 19 4 37 9 54 16 11 4 23 9 35 9 19 0 39 1 58 6 13 4 26 10 39 13l41 12c24 8 50 13 76 17 22 3 43 7 64 14 52 18 105 35 158 49 11 3 22-2 33 2 4 2 8 6 10 10h388c47-1 79-3 80-4 6-11 14-19 25-25 19-11 38-24 60-26l33-7 44-11c59-12 119-23 179-33 30-6 62-10 92-18 39-11 78-21 118-23 23 0 45-2 67 3 17 3 34 6 49 13 23 10 45 23 69 34 15 6 28 16 43 23 16 8 34 14 51 22 16 7 35 14 52 9 7-2 14-1 21 0 20 2 39-1 58-3 15-1 27 12 42 11l32 1v597H0V408z" style="fill: var(--c5);"/>
  <path d="M3470 296c15-3 31-5 46-6 23 0 45-2 67 3 17 3 34 6 49 13 23 10 45 23 69 34 15 6 28 16 43 23 16 8 34 14 51 22 16 7 35 14 52 9 7-2 14-1 21 0 20 2 39-1 58-3 15-1 27 12 42 11l32 1v84c-16 49-56 84-111 112l-171-143s39-18 40-26c0-2-8-9-17-12-12-4-41-10-56-10-9 0-24-6-26-10-2-2 0-4 3-5 0 0-13-12-22-14-9-3-25-1-31-1-3 0-5-3-2-4 3-3 13-4 20-4 0 0-26-15-41-20a267 267 0 00-88-8c-4 1-6-3-3-6 7-5 36-9 47-14 0 0-11-3-15-6l-8-8c-9-2-35-5-45-10l-4-2zm-1705-21c31 2 158 35 158 35-18 2-21 2-20 12 1 9 14 12 16 16-3 4-1 8 0 10-10 5-40 18-60 23-11 2-27 3-34 2-5-1-8-7-12-10s-11-4-11-6c1-3 9-7 15-9l16-4c4-1 3-9-1-10l-26-1c-9 0-19 2-24 3-1-4-4-4-5-6-1-3 5-7 0-12-6-4-10-2-15-2 6-6 23-10 28-12 5-3 4-9-3-11-7-3-36-5-42-7 3-5 13-12 20-11z" style="fill: var(--c4);"/>
</svg>
