<svg viewBox="0 0 4000 1000" xmlns="http://www.w3.org/2000/svg">
  <path d="M1982 177c15-3 31 0 47 4s29 14 45 19l43 16c11 4 22 11 35 12 20 2 38-7 56-11 14-2 28-4 40 3 17 9 35 14 52 23 20 9 38 23 59 32 36 17 73 31 111 46 32 14 66 24 100 33 19 4 37 10 54 18 24 11 52 13 78 12 21-3 41-7 61-12 15-4 30-2 44-9 27-16 55-32 87-37 20-4 41-5 61-11 17-4 32-10 48-18 21-10 44-14 67-14 21 1 41 6 62 8 15 1 29-6 42-13 15-7 30-15 46-19 8-2 15 0 22 1 17 5 34 6 50 12 25 9 52 10 77 17 19 4 37 12 56 14 19 3 37 11 56 14 18 3 35 9 52 10 11 1 22 1 32 4 15 5 31 5 46 10 20 8 40 12 60 20 21 9 42 18 65 21 34 5 67-4 101-9 25-3 50-4 75-4 29 1 59 6 88 8v623H0V362c22-11 45-22 68-30 17-5 35-8 53-12 33-8 68-14 102-23l92-24c25-9 52-16 79-17l24-1c25-2 49 4 74 3 13-1 25-6 38-4 10 2 18 10 28 12 19 5 39 2 58-1l44-9c16-4 32-12 48-17 27-11 54-18 82-25 11-4 22-4 33-2 15 3 29 5 43 9 16 4 34 6 51 4 15-1 29-8 44-10 18-2 36 5 54 8 12 3 23-3 35-4 10-2 20 1 30 2 27 3 52-10 78-9 7-1 15 1 22 4 12 8 25 15 36 24 29 21 61 37 91 55 37 19 79 30 121 32 12 0 25 2 37 0 13-1 24-6 36-10l46-16 43-19c37-13 72-31 106-50 26-12 54-19 82-24 27-5 55 0 82 1 43 0 81-23 122-32z" style="fill: var(--c3);"/>
  <path d="M3169 281l5-3c15-7 30-15 46-19 8-2 15 0 22 1l6 2-2 2c-15 0-23 5-26 7-2 1-3 6 0 6 14 1 26 8 31 11 2 2 7 7 2 9-14 5-15 13-6 19-3 4 0 10 1 14 1 6-3 16-7 23-21 35-81 50-118 54-31 2-75 2-93 6-19 5-39 8-53 10-10 1-21 1-30-1-8 7-59 11-88 13s-53-1-82 0c-8 0-19-4-26-5-6 0-14 1-20-1-4-1-5-4-12-8-4-2-12-2-17-7l16-1c2 0 9-3 2-4-5 0-20 2-32 0 10-2 34-7 39-12 2-1 1-4-1-4-4 1-35 2-45-1 20-3 36-6 41-11l41-9c15-4 30-2 44-9 27-16 55-32 87-37 20-4 41-5 61-11 17-4 32-10 48-18 17-8 35-13 54-14 13 5 9 16 7 20-4 12-23 27-33 30-3 0-3 4 0 4 7 1 28-3 41-10a1259 1259 0 0197-46zm-702 153c-12 0-20-2-32-3-15-1-27 4-58-1-51-8-85-33-122-43-31-9-64-10-96-17-41-9-90-25-125-44-43-23-130-46-164-54l-30-3c-3 0-24 2-45 8-32 10-69 27-73 28-66 13-164 54-207 67-17 5-44 15-51 13-2 0-5-5-8-5-13 2-41 19-59 21-37 3-91-10-164-5-34 2-61 16-119 16-30 0-84-12-121-26-29-8-71-19-91-21-18-2-48-6-73-1-16 3-29 11-33 8-6-7 4-24 16-33 12-10 44-14 59-26 15-11 32-35 45-42 10-5 22-6 33-5-7-7-5-12 1-17-18-13-40-19-58-23l25-1c15-1 29-8 44-10 18-2 36 5 54 8 12 3 23-3 35-4 10-2 20 1 30 2 25 2 48-8 72-9a124 124 0 00-56 25c-17 13-57 44-77 47-4 0-39 18-56 22-13 4-30 1-39 2-6 0-13 4-13 4l52 7c9 0 21 7 17 10-2 3-6 4-30 4l45 5c32 2 58 1 82 0l-60-13c-6-1-19-2-19-4 2-5 19-8 26-8 20 0 80 6 96 6v-4c-9 0-17-7-18-10-2-5 5-13 11-12 14 0 54-2 67 3 3 1 13-3 13-3-8 0-25-8-30-13-4-4-8-9-7-14 2-9 17-31 23-38 1-2 10-2 17-2l20 14c29 21 61 37 91 55 37 19 79 30 121 32l18 1 19-1c13-1 24-6 36-10l46-16 43-19c37-13 72-31 106-50l22-9 10-3 38-10 3 3c3 1 12-2 18-1 10 1 32 0 41 8 3 4-18 6-17 8s16 4 20 6 4 5 3 8c-3 8-15 10-15 11 0 3 21 2 21 2l33 6 52 13-36-20 8-13s33 3 49 7c20 5 45 13 67 22l75 38s-15-11-21-19-16-21-16-32c0-8 4-19 12-21 16-4 65-2 80-5l12-2c19 0 36-8 53-12 10-2 21-3 31-1l20 22c10 10 22 26 34 35 11 10 26 15 38 23 15 11 34 46 61 61 17 10 38 10 60 9l11-1c3-1 3-4 0-4-7 0-27-2-37-8-10-5-21-10-29-17-6-5-18-16-15-21 1-2 16-1 23 0 9 2 24 7 28 10 3 2 6 0 4-2-4-4-21-13-32-18l-31-11c-17-6-47-14-69-28-14-9-30-24-37-33l-2-5c11 5 23 9 34 15 20 9 38 23 59 32 36 17 73 31 111 46 25 10 51 19 77 27l-1 4c-8 3-27-1-32-4-2-2-4 0-3 0 7 9 35 17 46 19 5 1 7 8 16 13 15 10 26 11 31 15 2 1 0 6-2 6-6 0-29-1-35-5-2-1-4 2-1 3 4 3 18 9 30 11l-19-2c-7-1-18 0-25 2-14 3-41 15-56 19-9 3-28 4-28 4l-1 1zM0 400v-38c22-11 45-22 68-30 17-5 35-8 53-12 33-8 68-14 102-23l92-24c25-9 52-16 79-17l24-1h21c-19-1-78 2-108 21-35 22-87 55-113 82-12 12-19 36-46 41-18 4-46-8-68-5-22 2-50 17-68 17-12 0-27-8-36-11zm568-132c16 2 33-1 48-3l44-9c16-4 32-12 48-17 27-11 54-18 82-25 11-4 22-4 33-2l10 2-19 1c-13 2-28 9-40 15-21 9-54 33-86 41-50 14-101 12-114 2l-6-5zm1391-85l3 3c2 1 6-1 8-1l13 5v4c-3 0-3 2 0 5-11 1-22 1-23 7 0 0 9 0 13 2l11 9c-4 3-1 5 2 9 0 0-23-5-26 2-1 3 26 20 26 20-31-12-74-25-127-39h1c35 0 66-15 99-26z" style="fill: var(--c4);"/>
</svg>
