<svg viewBox="0 0 4000 1000" xmlns="http://www.w3.org/2000/svg">
  <path d="M2550 660c-30 10-61 4-91 1-9 0-11-10-13-17-30-4-65 5-92-14-5-6-11-14-6-21 7-13 23-15 36-17l70-10c32-4 64 0 97 1 36-6 73 0 110-6 20-2 40-9 61-9 31 1 61 3 92 2 92-6 184 7 276 6 24-4 39 16 59 24 32 9 65 13 98 17 18 1 34 10 48 20 8 4 11 16 5 23-6 11-19 12-30 16-5 22-23 44-47 47-31 4-63 0-95 2-27 2-55 0-82 1s-52-8-78-13c-27-7-56-5-84-9-35-4-70-4-105-9l-109-13c-13-2-27 2-40 1-9-1-14-11-24-10-19-3-37-8-55-13h-1z" style="fill: var(--c2);"/>
  <path d="M2454 582c32-4 64 0 97 1-32 7-66 5-98 13-10 2-21-2-30-6l3 11c-20 3-40 6-59 12-4 3-12 4-4 12 3 7 12 8 18 10l57 3c16 1 29 13 45 15 22 3 45 0 67 7-30 10-61 4-91 1-9 0-11-10-13-17-30-4-65 5-92-14-5-6-11-14-6-21 7-13 23-15 36-17l70-10z" style="fill: var(--c0);"/>
</svg>
