<svg viewBox="0 0 4000 1000" xmlns="http://www.w3.org/2000/svg">
  <path d="M651 500c3-5 8-9 14-11 7-2 15 0 23 0 32 2 64 9 96 2 11-2 20-9 30-11 16-3 33-2 50-4 15-2 29 7 44 2 14-6 29-6 44-6 8 0 16 3 24 4 8-1 16-4 24-4 13 0 25 3 38 2 35-2 71 0 106 2 19 1 38-5 56 1 15 5 31 2 46 2l35 2c10 2 21-2 31-2 19-1 38-5 57-8 7-1 13 2 20 4 7 3 14 3 22 5l20 8 18 2c13 1 25 8 39 7 17-1 34-2 51 0 14 2 27-5 41-6 12 0 23-6 34-8 14-3 26 5 40 4 20-1 39-10 56-21 11-6 24-4 36-4 25 2 49-3 74-3 14 1 26-7 40-8l20-5c12 0 25 5 36-2 7-5 16-8 26-7 7 1 13 6 19 10 11 5 23 6 35 7 10 1 19 6 29 7 11 2 22 0 33 2 8 1 15 5 23 6 9 2 18 1 28 3l20 5c21 3 42 0 63 3 10 0 19 5 28 6 9 2 19 2 28 2 11-1 20 5 30 5 17 0 34 6 51 8 12 2 25 0 37 0 31 7 62 0 92-5 10-2 20 1 30 2 21 2 41-5 62-4 23-2 47 2 69-5 26-7 52-13 79-16 19-4 38-3 56-9 18-4 36-9 54-9 10-1 18-6 28-7 8 0 16 1 23-3 10-5 22-4 33-4 10 0 20 0 30 3 8 3 16-2 24-3 18-3 36 0 54-1 8-3 17-4 26-6 16-6 32 3 48 1 15-1 29-5 44-4 12 1 19-10 30-13 9-1 17 2 26 1 13-2 26 5 39 3 8-1 14-6 22-9 6-1 13 2 19 3 15 4 31 1 46 5 14 3 29-2 43 2 9 3 17-4 25-6 11-4 22-11 34-11 20-1 40 2 60 4 14 0 26-7 38-10l54-5c11 0 20-7 31-8 14 1 27 10 41 11 13-3 26-8 40-6 5 1 7 7 13 9 5 2 11 2 16 6 11 8 23 15 34 24 5 5 10 9 16 12 6 0 12-2 19-1l24 6c19 6 34 22 54 23 8 1 16 4 23 8 16 9 34 13 48 24 16 6 32 14 43 27 6 7 16 7 24 10 8 5 13 12 20 17v443H651V500z" style="fill: var(--c7);"/>
</svg>
