<svg xmlns="http://www.w3.org/2000/svg" viewBox="0 0 640 512">
  <path d="M112 192a24 24 0 00-24-24H24a24 24 0 000 48h64a24 24 0 0024-24zm-5 95l-55 32a24 24 0 1024 42l55-32a24 24 0 00-24-42zm24-232L76 23a24 24 0 10-24 42l55 32a24 24 0 1024-42zm390 45a24 24 0 0012-3l55-32a24 24 0 00-24-42l-55 32a24 24 0 0012 45zm95 68h-64a24 24 0 000 48h64a24 24 0 000-48zm-28 151l-55-32a24 24 0 10-24 42l55 32a24 24 0 0024-42zM320 0C218 0 144 83 144 176a175 175 0 0044 116c16 19 42 59 52 92h48a48 48 0 00-2-14c-6-18-23-65-62-110a127 127 0 01-32-84c0-74 60-128 128-128a128 128 0 0196 212c-39 45-56 92-62 110a57 57 0 00-2 14h48c10-33 36-73 52-92A176 176 0 00320 0zm0 80a96 96 0 00-96 96 16 16 0 0032 0 64 64 0 0164-64 16 16 0 000-32zm-80 379a16 16 0 003 9l24 37a16 16 0 0014 7h78a16 16 0 0014-7l24-37a16 16 0 003-9v-43H240z" fill="currentColor"/>
</svg>
