<svg xmlns="http://www.w3.org/2000/svg" viewBox="0 0 24 24">
  <!--
    GitHub icon by Cole Bemis (@colebemis);
    Url:            https://feathericons.com/?query=github;
    License:        Available under MIT License (https://github.com/feathericons/feather/blob/master/LICENSE);
  -->
  <path d="M9 19c-5 1.5-5-2.5-7-3m14 6v-3.9a3.4 3.4 0 00-1-2.6c3.2-.3 6.5-1.5 6.5-7A5.4 5.4 0 0020 4.8 5 5 0 0020 1s-1.3-.3-4 1.5a13.4 13.4 0 00-7 0C6.3.6 5 1 5 1a5 5 0 000 3.8 5.4 5.4 0 00-1.5 3.7c0 5.5 3.3 6.7 6.4 7a3.4 3.4 0 00-.9 2.6V22" fill="none" stroke="currentColor" stroke-linecap="round" stroke-linejoin="round" stroke-width="2"/>
</svg>
