
<svg viewBox="0 0 4000 1000" xmlns="http://www.w3.org/2000/svg">
  <path d="M3954 700l46 14v286H0V480l22-1c12 0 24-4 36-5 11-1 21-4 31-7 16-5 33-2 49-4 15 0 30-7 45-2 17 5 33 16 43 31 4 6 11 7 18 8 15 2 29 1 44 0s27 12 42 11c21 1 43-8 64-1 15 4 25 15 37 23 7 4 11 10 17 15 11 4 24 3 35 7 10 3 20 7 30 8 13 3 25 0 37 1 15 1 31-5 45 1 16 6 33 5 49 7 12 1 22 7 32 12 6 3 10 9 16 11h22c7 1 13 6 20 6 13 1 25 1 37 6 11 3 20 9 30 13 11 3 23 4 34 9 8 4 14 11 21 15 15 5 31 7 45 15 10 6 21 6 31 10 12 4 24 4 36 4 3-5 5-10 9-14 4-3 10-5 15-7 6-3 11-7 17-9 8-2 18-1 26-4 11-2 23-4 34-2 8 2 14 8 22 10 7 2 15 1 23 1 12-1 24 0 36-4 19-6 40-9 59-3 11 5 23 11 31 21l8 8 19-1c8-3 16-9 25-8 16 3 26 16 40 22 12-1 25-5 36-1 10 2 16 10 23 15 11 4 23 2 35 6l24 3c11 0 21 5 32 9 8-7 17-12 28-13 11-2 23 0 34 2 5-2 10-6 14-9 4-7 6-15 12-19 11-9 26-8 40-6 20 4 41 10 58 22 8 4 13 11 16 19h30c4 1 6-2 9-4 9-8 23-10 34-6 14 5 28 2 42 6 8 2 14-4 20-6 18-6 37-3 54 0 7 2 13-3 20-4 14-2 27 1 41 3 9 1 18 2 27 5 5 2 9 7 14 9l19 4c9 3 17 8 25 13 6 4 13-1 20-2 23-2 47 6 66 20 2 2 5 5 9 4l24-3c6 0 10-6 16-8 12-7 27-5 41-5 11 2 23 1 34 2 11 2 20 9 27 16 14-2 27-4 40-1 27 3 47 22 72 28l33 9c3 1 8 2 11-1 8-6 14-13 23-18 6-3 14-3 22-5 7-5 12-12 19-15 23-11 52-6 71 11 11 7 16 19 28 24s25 9 38 12c8 2 14-5 22-6l27-4c29 0 54 17 82 21 22 3 44-6 66-5 25 0 49 3 74 2 41-2 80 11 119 22 21 7 43 12 64 20 6 3 12 5 19 6l72 3c10 1 18-7 27-9 10-4 22-2 31-9l27-17c10-7 22-14 35-13 11 0 21 7 32 8 13 0 26-2 38-7 7-4 16-3 23-6l4-13-15-1c-1 5-3 8-7 10v-11c-5 2-9 5-11 11l-9-2c6-5 6-14 9-20 4-8 14-2 20-5 10-5 20-6 30-9-1-3-3-6-6-8l12-1-5-7v-5c5 0 10 1 15-2 4-5 5-12 10-17l-6-8-11 4c-4-2-8-6-11-2-3 6-3 12-4 17-4 2-9 3-14 2 5-2 11-4 13-10v-11c-4 4-7 9-12 12l-13-8-14 5c5-6 13-7 19-12l-3-7-4 6c-5-3-13-7-11-15 6-6 15-3 23-4l-1-5-9-4 1-6c13-1 26-4 38 2l1-12-22 4c9-15 30-3 39-17-5-5-10-10-17-12l2-9-7 1 3-6-6-2c12-5 22 5 34 3 4-5-4-5-7-6l2-19c-4 6-11 6-17 6l-3 11c-11 1-22 1-31-5l2-9 10-1c3-4 9-7 8-13-4 1-8 4-11 7-6-4-4-10-2-16l15 2 5-6c-3-3-6-6-6-11 5-1 11-1 17 2 8 4 17 0 26 0l-2-15 5-13c-6-6-12-11-17-18 7-2 14-5 18-12l-9 1c2-8 4-17 0-24 6 4 15 9 20 1l-7-10 8 3 8-8 12-1 2 9-6 9c4-1 8 0 12 1-5 5-14 11-8 18l-7 10 11 8c-7 1-13-4-20-2 3 9 12 13 19 18 3 2 1 7 2 11l22 2v5c-4 2-8 5-10 9l-8-8 1 15-5-7c-5-1-13-2-13 5 1 10 10 16 13 26l-8 4c5 8 11 15 19 20l-2 8-7-3c3 7 10 11 16 14v8l7 5c-1 5-2 10-1 14 5 4 11 6 17 7l3 8 7 2-8 5c5 5 10 10 13 16 0 5-1 10-6 11h-20c-11-3-18-14-24-23 0 5-1 10 3 14l17 23c4 6 12 5 18 8l8 11 2-14c5 3 11 8 18 7 8-4 15-9 22-15-11 0-19-8-27-14l1-1 1-2h1c6 3 12 6 19 7-4-6-7-13-13-17-4-4-8-8-8-14 9 1 15 9 23 13 2-3 5-5 5-8-1-4-4-6-6-9-4-5-2-12-3-18 8 2 16 3 24 1l-1-7-12-9h15l15-5 3-6 18 6c7 2 12 7 18 10h14s83 4 144 5c23 0 59 7 70 11 16 8 44 11 64 16l20 5z" style="fill: var(--c8);"/>
</svg>
