<svg viewBox="0 0 600 600" xmlns="http://www.w3.org/2000/svg" fill-rule="evenodd">
  <path d="M356 431l-103 16-21 4-7 27-91 40-17 7v6h-5s-21 52-30 69h461c-6-21-3-42-7-63-4-7-9-16-8-24-11-11-28-41-28-41l-71-8-29-5-9-15-35-13z" fill="#f1eee9"/>
  <path d="M302 565c-3-2-7-1-8 2-2 3 0 6 3 8 4 1 8 0 9-2 1-3-1-7-4-8zm2-67c-3 0-6 3-6 7 0 3 3 6 6 6 4 0 7-3 7-6 0-4-3-7-7-7z"/>
  <path d="M433 466l-3-1-19 34c-18 21-20 67-25 101h4c4-27 5-60 13-80 3-8 21-36 30-54zm26 134c-1-27-17-65-13-91v-41l-3-1-2 51c0 26 13 54 14 82h4zm-79-122l-4 4c-3 15-11 29-19 42-6 10-10 51-14 76h4c3-25 7-64 13-74 9-15 18-31 20-48zm-166 5l-5 2-15 33c-13 25-15 54-19 82h4c2-23 5-46 13-68 4-13 16-32 22-49zm29 10l-2-2c-6 18-16 35-19 53l-3 56h3l2-43c0-23 12-43 19-64zm80 21l-2-3c-6 14-9 28-9 40l-2 49h3c4-28-3-59 10-86zm195-2a91 91 0 01-17-38l-5-1c4 13 9 26 17 38l3 6-2 5v1c-5 10 7 15 5 27-4 17 1 33 4 50h4c-4-17-7-34-5-52 1-9-9-18-2-27 1-2 1-6-2-9zm-249 12l-2-4c-9 25-13 53-12 80h3c-1-26 3-51 11-76zm-157 11l-4 12c-3 18-12 35-10 53h3c-2-22 11-43 11-65zm376-3c-5-21-12-43-21-62l-6-1 6 10 1 2c3 18 14 34 18 53v10h2c0 19-3 37-2 56h4c-2-19 4-38 1-56v-1l-3-10v-1zm-353 30c6-16 15-33 19-51l-3 1c-4 15-9 33-20 46l2 5-1 37h3v-38zm167 4c-2-1-5 0-7 2-1 2 0 5 3 6 2 2 5 1 6-1s0-5-2-7zm32-94c-3 14-8 29-10 43l3 5c-1-17 8-32 7-48zm-45 7l-4-2c-13 7-14 24-20 36l3 4c4-13 8-31 21-38zm61-17l-2 1c-2 16 0 35-1 51l2-3c2-16 1-33 1-49zm-45 38c-2 0-4 2-4 4 0 3 2 5 4 5 3 0 5-2 5-5 0-2-2-4-5-4zm-35-29l-4-2c-14 2-14 17-16 28l2 1c2-10 6-24 18-27zm103 11c0-10 0-21-10-26 7 7 8 19 8 29l2-3zm-124-22c-13-1-17 11-18 21l2 2c1-10 6-22 18-21l-2-2zm123-17l-2 2c8 6 17 15 16 25l3-2c1-11-10-18-17-25z" fill="#aa5031"/>
  <path fill="#fff" d="M192 219h183v78H192z"/>
  <g id="eyes">
    <g id="eye-l">
      <path d="M221 245c-13-3-22 28-3 27 13-1 11-25 3-27z" fill="#418fca"/>
      <path d="M220 243c6 2 10 10 9 17s-6 13-11 13c-7 0-13-9-11-18 1-6 9-13 13-12zm1 3c-7 0-11 5-12 11 0 6 2 12 9 13 9-4 11-18 3-24z"/>
    </g>
    <g id="eye-r">
      <path d="M313 259c8-8 21-5 20 11-1 17-13 19-19 12-3-3-5-18-1-23z" fill="#418fca"/>
      <path d="M326 254c2 1 10 4 8 18-1 10-7 15-12 16-2 0-7-2-9-5-3-3-3-9-3-14 0-3 0-10 5-13 3-2 7-3 11-2zm5 10l-2-5-6-3-6 1c-2 2-4 3-4 5-1 6-1 13 1 19 1 2 6 4 9 3 8-3 10-12 8-20z"/>
    </g>
  </g>
  <path d="M170 247h-3c-9 0-11 18-11 22-1 19 9 49 30 51 6 20 25 55 65 73 0 0 4 57 1 68l45 21 7 7 4-3s40-25 57-38c-8-6-21-58-21-77l26-27c9 9 26 2 34-1 20-9 27-51 12-58l-6-3V158H181l-11 89zm174 124zm-31-86c-4-5-3-43 4-48 17 8 41 27 47 38-5 14-37 28-51 10zm-56-58c-1 6-6 38-25 47-25 13-26-28-27-28 9-10 29-19 52-19z" fill="#f0d6bd"/>
  <path d="M396 289h-17c-5 12-9 25-17 36-9 12-24 19-37 29-19 13-77 20-105-7-7-7-27-25-36-39 7 38 31 71 72 87 23 9 59-7 82-23 20-13 28-23 42-42 0-2 4-9 4-14l3-9 3-9 6-9z" fill="#b7a18d"/>
  <path d="M324 332a73 73 0 01-74 9c18 33 62 12 74-9z" fill="#a25050"/>
  <path d="M317 333c-14 5-45 10-73 2 19 17 56 16 73-2z" fill="#f1eee9"/>
  <path d="M254 450v-3h-3c-7 1-19 0-21 6l-6 25c-34 12-65 32-100 43-5 1-9 2-9 7-6 2-6 11-8 14l-26 58h3c8-17 15-35 24-52l5-14 2-1h5l-2-5v-3l5-2 31-11c18-9 36-19 55-26l16-7 18 15c9 8 19 15 24 27l3 9c15-11 18-31 29-45l5 8-8 2c-1 35-8 70-9 105h2c1-35 8-69 8-104l9-1 1-4c6 6 14 19 15 24 3 7 8 12 15 16 13-16 25-33 39-48l4-4c10-16 33-17 49-13l17 2 21 2 33 4 1 3c8 13 15 27 26 38-1 8 5 13 7 21 7 18 2 43 8 64h3c-10-25 1-54-15-76 1-6 1-13-5-16-11-10-20-36-25-37-31-6-64-5-95-12-9-2-8-14-17-18l-31-11 2 7c3 2 7 4 11 4l-8 8c-18 15-39 25-58 38l-6-4c-10-9-30-13-45-22l-1-2-3-1c-1-1 1-4 3-7l2-1zm171 109c-5 13-7 27-9 41h3c1-14 6-27 6-41zm-272 41c1-11-1-23-11-29 7 8 10 17 9 29h2zm-18-38c-8-11-14-21-16-27 1 11 10 18 14 28l2 1v-2zm306-44c3-5 18-31 26-37v-2c-10 11-21 28-26 39-5 10-6 23-10 34 5-11 5-23 10-34zm83 1l-9 2-27 11c-5 3-13 9-17 14l20-2 26-3-26 2-19 2c4-4 7-7 16-12 8-4 17-8 26-10l11-4h-1zm-177-5l-11 15c-3-3-7-5-9-10-1-3-12-24-20-30l1-2 40-23c9-6 20-16 25-21v-3l-1-2 19 7c3 3 5 11 9 14l6 4-16 4c-6 3-11 10-14 13-5 4-24 28-29 34zm-80-44l21 9c2 1 7 2 10 5-12 12-16 32-27 43l-4-11c-2-5-11-15-16-19l-18-14-6-7c3-7 3-11 4-17 1-11 14-9 21-10l-4 5c-1 2-2 4 1 7l18 9zm104-32h-5l-4-3 9 3z"/>
  <path d="M411 283c-5 0-14 4-17 7l-4 8c4-5 10-10 17-12h7c19 13 7 49-13 58-4 1-23 8-29-1 3-4 7-8 8-13-13 15-25 32-43 42-24 13-57 30-80 22-37-12-65-46-71-84-3-16-8-34-8-51 0-6-3-11-7-13-3-1-9 1-10 3-8 13-6 32-3 43 5 12 12 28 27 29 11 31 34 59 64 72l2 55 2 1-1 2v8l1 2c3-11 1-24 1-36 10 1 26-4 39-10 18-10 36-21 50-36 3 18 6 36 11 53l9 17 2-2-8-16c-3-13-7-26-8-40-1-8-6-20 2-27 7-5 13-12 19-18 9 8 30 1 33-1 20-10 30-43 17-58-1-1-4-4-9-4zm-84 53c0-3-2-5-3-6-25 7-54 14-78 2-6 0-6 2-6 3 9 4 12 15 21 20 24 12 49-5 66-19zm-6-1c-8 9-21 17-34 20-12 3-26 1-35-12 23 10 50 8 69-8zm-9 1c-9 7-20 10-31 10-12 0-23-3-32-9 20 7 43 4 63-1zm97-38c-8-5-19 3-22 9l-3 9 4 1 1 2-2 6c6-3 5-10 0-12 3-8 11-17 20-14 7 3 5 15 5 23 5-7 2-21-3-24zm-251-31c0-13 5-19 11-19 3 0 7 9 7 15-10-12-19 9-12 17 0-7 1-20 6-19 3 0 7 10 7 16-5 2-5 9-2 13v-9l3-1 6 39c-21-6-27-33-26-52zm112 17l-1-3-11 16 8 16c1-6-3-11-5-16l9-13zm-64-44l-7 7 3 2 1-1c1 9 4 28 19 30 15 1 26-16 31-27l1-3 3-18 4 1 1-3-1-2c-18-2-37 3-51 11l-4 3zm103 21c-1 9-2 19 4 26 15 16 39 7 50-9l2 2h4c0-2-5-9-7-11a205 205 0 00-45-35l-3 4c-2 3-5 18-5 23zm4-3l4-18c-1-3 39 20 45 36-9 11-27 22-41 13l-7-7c-3-6-3-13-1-24zm-93-18c11-5 23-11 36-9l-5 16-1 3c-5 13-15 27-30 25-2 0-9-5-12-15l-1-13 8-5 5-2zm85-25c18-1 56 7 67 16-8-12-22-20-36-23-11-2-24 0-31 7zm-74-10c12-1 26 3 35 8-2-12-16-18-23-17l-12 9z"/>
  <path d="M263 250c0-5-2-9-5-11-6-5-16-7-24-8l-19-1c-5 0-13 0-15 3l-2 2-14 3v7l12-1-1 10c-2 17 8 31 27 36 19 4 34-7 39-20l2-14 18-2c8 1 12 4 16 7l-3 15c0 14 11 31 31 33 20 3 36-7 40-25l3-12 14 3 4-5-18-6-1-3c-1-3-8-6-13-8l-19-6c-9-2-19-4-27-1-4 1-7 5-9 9-2-2-9-7-18-7-8-1-16 1-18 2zm72 1c-10-2-19-4-26-1s-11 18-12 26c-2 15 11 29 29 32 18 2 34-9 36-24 1-8 1-15-4-21s-14-10-23-12zm-102-16c9 1 17 2 23 7s4 20 2 27c-4 14-20 23-36 19-17-4-28-19-24-34 1-6 4-13 10-17 7-3 16-4 25-2z"/>
  <path d="M397 118c1-20-20-31-38-33-19-4-52 1-56-26-10 13-1 24 4 26v2l-39 1c-7-4-14-10-12-20-5 3-13 10-11 17l5 6-23 4c0 2 5 5 5 5-8 1-26 8-34 17-19 21-24 50-32 75-6 14-22 17-34 24 12 5 20 4 33 0-5 9-8 13-10 35l15-12c0 9 8 19 17 23-8-33 5-56 5-56s-4 26 3 45c4-22 22-36 38-47 11-10 21-24 21-24s18-7 30-15c0 0-12 45-3 80 9-28 39-34 54-61 0 0-2 18-11 30 19-8 26-35 26-35 2 13 25 44 27 62 1 7-1 16-4 23 7-2 16-22 16-22l2 12s-1 19-24 31c9 2 19 5 28 4l11-4c12 3 32-3 27-19 5 5 13 10 20 11-15-14-10-52-7-77 0-5 0-9-3-17 8 0 13 1 19-5-8-4-19-7-22-17-8-17-24-28-39-36 5-6 16-6 23-4-5-11-21-10-27-3z" fill="#623f1b"/>
  <path d="M249 188c2-5 11-10 17-12 5-3 11-4 16-8l-3 15c-6 21-4 46 3 67 3-9 8-18 14-25a873 873 0 0019-17c7-5 13-12 18-19l-6 18-4 8s6-1 12-7c7-7 12-15 15-24 9 24 32 46 24 74l-1 3-2 4 6-2c7-4 9-12 12-18 1 6-1 13-5 19l3-1c-1 5-4 9-8 12 0 1-1 2-3 2l-8 6-4 3 7 1 8 2 15 1c3 0 10-4 19-3h7c9-2 16-9 15-18 10 7 20 16 33 12-8-4-20-7-21-18-4-19-3-39 0-58 3-7 1-14-2-20 8 0 17-1 20-9-8-3-19-4-23-13-7-18-22-31-38-39 7-5 17-5 24 2-4-12-20-19-30-10-1-13-10-22-22-28-18-8-37-4-55-10-14-4-16-13-17-23-9 9-10 24 2 31h-31c-10 1-20-7-19-18l1-2c-9 5-18 15-10 25l-22 3 2 6c-19 3-34 17-42 34-11 18-14 40-22 59-6 13-24 13-32 22 6 10 22 5 32 3-8 10-11 23-9 35l6-4 5-3 4-5 1 4v2c1 4 5 10 8 12h1c5 3 10 6 14 6l-3-4c-9-15-2-36 1-52-2 9-2 18 0 28 1 8 1 17 7 20-3-10 2-18 3-20 6-16 28-28 36-34l7-7 5-8zm-79 26c3-3 4-8 3-12l-2 7c-10 8-25 12-37 7 11-7 28-9 33-23 8-26 13-54 32-75 12-11 32-18 38-16l-8-6 24-3c-2-2-6-5-6-7-3-7 3-13 8-17v7c1 5 5 8 9 11l8 3c15-2 25-2 40-2-13-8-15-18-9-25 6 24 37 19 56 23 18 2 38 14 38 34 6-8 18-8 24-2-7 0-14 0-20 5l-1 2c15 7 31 20 38 36 3 10 14 14 22 18-7 5-15 2-23 2l3 4c2 0 3 2 4 5v10c-1 25-8 53 6 75-7-1-11-8-18-11 5 16-14 22-26 20l5-14c-5 6-7 17-16 18-8 1-16-1-24-3h-2 2c22-12 29-41 24-64 0 10 1 21-3 31 1-11 2-23-6-32 4 12 1 28-7 38l-5 5 2-6c3-5 2-12 2-17-2-23-22-38-26-60-1-11 1-22 4-32l-2 1c-1-9-2-19-7-27 5 15 5 30 2 45 0 17-8 35-23 44 9-12 10-27 13-42v-1c-8 34-47 44-58 75-6-24-3-50 4-74 0-3 4-7 8-11a138 138 0 0018-20l-14 14c-13 12-15 17-32 22-9 3-15 7-16 9-1 4-3 7-6 10l-10 9c-16 12-35 24-39 45-5-21-1-44 7-64-19 26-23 63-16 77h-1c-7-4-11-11-13-18v-14l-3 4c0 6-3 11-9 13-1-11 2-23 11-31z"/>
</svg>
