<svg version="1" xmlns="http://www.w3.org/2000/svg" width="933.333" height="933.333" viewBox="0 0 700.000000 700.000000"><path d="M200.4 24.2c-5.6 8.6-23 35.2-39.1 59.8-6.3 9.6-18.4 28.1-26.8 41-8.4 12.9-20.5 31.4-26.8 41-14.7 22.5-33 50.5-42.2 64.5-27.6 42.3-39.4 60.5-51 78-7.2 11-13.4 20.5-13.8 21.1-.4.7 3 9 7.4 18.5 4.4 9.6 8.9 19.2 9.9 21.4 1 2.2 3.7 8 6 13 2.3 4.9 5.5 11.7 7 15 1.5 3.3 4.7 10 7 15 2.3 4.9 6.8 14.6 10 21.5s13.7 29.6 23.5 50.5c9.7 20.9 19 40.7 20.5 44 4.9 10.6 15.7 33.7 20 43 2.3 4.9 6.8 14.6 10 21.5s7.4 15.9 9.3 20.1c2 4.2 6.8 14.6 10.7 23 4 8.5 7.6 15.8 8.1 16.3 1.1 1.2 1.2 1.2 13.5 2.1 5.4.4 11.3.8 12.9 1 1.7.2 6.2.7 10 1 3.9.3 9 .7 11.5 1 2.5.2 7.9.7 12 1 7.6.6 12.4 1 21.5 1.9 2.8.3 8.6.8 13 1.1 9.1.7 17 1.3 23.5 2 2.5.2 8.1.7 12.5 1 4.4.3 9.6.8 11.5 1 1.9.2 7.6.7 12.5 1 5 .4 10.1.8 11.5 1 1.4.2 5.9.6 10 1 4.1.3 9.5.8 12 1 2.5.2 7.9.7 12 1 4.1.4 9.2.8 11.2 1 2.1.2 7.5.7 12 1 4.6.3 9.4.8 10.8 1 1.4.2 6.3.7 11 1 4.7.3 10.3.8 12.5 1 7.5.6 19 1.6 24 2 2.8.3 7.5.7 10.5 1 3 .2 8.4.7 12 1 3.6.3 8.3.7 10.5.9 2.2.3 7.6.7 12 1 4.4.4 9.6.9 11.5 1.1 3.1.4 3.8.1 5.7-2.8 1.2-1.7 15.5-21.4 31.7-43.7 33-45.1 29.9-40.9 102.5-140.5 28.8-39.6 56.6-77.7 61.8-84.7 5.1-7 9.3-12.9 9.3-13.2 0-.5-6.1-13.5-16.4-35-4.2-8.7-7.6-15.9-7.6-16.1 0-.2-3.5-7.7-7.9-16.7-7.3-15.1-18.5-38.7-29.4-61.8-2.5-5.2-7.3-15.4-10.7-22.5-3.4-7.2-7.9-16.6-10-21-2.1-4.4-6-12.7-8.8-18.5-13-27.5-23.5-49.7-29.1-61.5-22.8-48-27.6-57.5-29-58-.9-.2-5-1.1-9.1-1.9-4.1-.8-8.6-1.8-10-2-1.3-.3-4.2-.8-6.4-1.2-2.2-.3-4.3-.7-4.7-.9-.3-.2-1.9-.6-3.5-.9-1.6-.3-13-2.6-25.4-5.2-12.4-2.5-23.5-4.8-24.8-5-1.2-.2-21-4.3-44-8.9-55.7-11.4-76.3-15.6-78.7-16.1-1.1-.2-6.5-1.3-12-2.4-5.5-1.1-10.9-2.2-12-2.4-6.9-1.4-49.6-10.1-57.5-11.8-5.2-1.1-10.6-2.2-12-2.4-1.4-.3-7-1.4-12.5-2.5-5.5-1.2-11.1-2.3-12.5-2.6-1.3-.2-5.5-1.1-9.3-1.9-10.3-2.1-10.1-2.2-15.3 5.8zm43.1 27.6c11.6 4.4 33.2 12.6 48 18.2 14.9 5.6 33.5 12.7 41.5 15.7s22.6 8.6 32.5 12.3c9.9 3.7 26.6 10 37 14 29.7 11.2 84.3 31.9 91.8 34.7 3.7 1.4 6.6 2.7 6.5 2.8-.2.1-13.8 6.2-30.3 13.5S438 177.4 435 178.7c-3 1.4-12.9 5.8-22 9.8-9.1 4-19 8.4-22 9.8-3 1.3-10.9 4.8-17.5 7.7-6.6 2.9-14.2 6.3-17 7.5-2.7 1.3-10.4 4.7-17 7.5-6.6 2.9-14.2 6.3-17 7.6-2.7 1.2-28.9 12.8-58.2 25.8-62.1 27.5-60.9 27-69.1 30.7-3.5 1.6-6.5 2.9-6.7 2.9-.3 0-3.9 1.6-8.1 3.5-4.1 1.9-7.7 3.5-7.9 3.5-.3 0-2.8 1.1-5.7 2.5-12.9 6-32.3 14.3-32.6 14-.2-.2 1.4-6.1 3.6-13.2 4.1-12.8 18-57.8 33.7-108.8 4.6-14.9 10.4-33.8 13-42 2.6-8.3 5.6-17.8 6.6-21.3 1.1-3.4 2.8-9.1 3.9-12.7 1.1-3.6 2.9-9.3 3.9-12.8 1.1-3.4 3.1-10 4.6-14.7 1.5-4.7 3.3-10.5 4-13 1.2-4.2 4.6-15.1 8.1-26.2 1.8-5.5-1.2-6.1 27.9 5zM347 66.6c4.1.9 8.4 1.8 9.5 2 1.1.2 3.4.7 5 .9 1.7.3 3.7.8 4.5 1 .8.2 2.9.7 4.5.9 1.7.3 15.4 3.1 30.5 6.2 15.1 3 28.4 5.8 29.5 6 1.1.2 4.3.8 7 1.3 2.8.6 14.9 3.1 27 5.6 12.1 2.5 23.1 4.8 24.5 5 14.6 2.8 41.2 8.4 41.5 8.7.4.4-.7 4.4-6.1 22.4l-2.4 8.2-22.2-8.5c-12.3-4.6-31.3-11.8-42.3-15.9-11-4.1-22.7-8.6-26-9.9-13.1-5.1-30.1-11.5-30.8-11.5-.4 0-2.6-.9-5-1.9-2.3-1-15.9-6.3-30.2-11.6-14.3-5.4-26.2-9.9-26.4-10.1-.6-.6-.2-.5 7.9 1.2zm-170 34.1c-1.4 4.1-19 61-20.5 66.3-.7 2.5-4.5 14.8-8.5 27.5-4 12.6-8 25.7-9 29-1.8 5.9-27.1 88-29.1 94.2l-1.1 3.3H70.4c-21.1 0-38.4-.2-38.4-.5 0-.5 4.8-8.2 6.3-10 .5-.6 3.6-5.3 7-10.5C56 283.5 68 265.1 78.5 249c5.6-8.5 13.6-20.7 17.7-27 4.1-6.3 11.9-18.3 17.3-26.5 16.9-25.8 49.4-75.5 56.7-86.8 3.9-5.9 7.2-10.7 7.4-10.7.1 0-.1 1.2-.6 2.7zm375.2 36c5.8 12.3 12.2 25.9 19.8 41.8 2.9 6 9.4 19.8 14.5 30.5 13.7 28.9 16.8 35.4 17.3 36.5 1.8 3.6-2.5-2.9-14.1-21.1-14.3-22.6-16.5-26.1-36.3-57L540.3 147l3.1-10.5c1.7-5.8 3.2-10.5 3.4-10.5.1 0 2.6 4.8 5.4 10.7zm-35.7 32.8c-.3 1.9-.7 5.9-1 8.8-.3 2.8-.7 7.2-1 9.7-.2 2.5-.7 7.4-1 11-.3 3.6-.8 8.5-1 11-.3 2.5-.7 6.7-1 9.5-.5 6-4.4 45.9-5 53-.3 2.7-.7 6.8-1 9-.2 2.2-.7 7.1-1 11-.3 3.8-.8 8.6-1 10.5-.3 1.9-.8 6.4-1 10-.6 6.7-1.2 13.1-2 21-.3 2.5-.7 6.7-.9 9.5-.3 2.7-.8 7.9-1.1 11.5-.4 3.6-.8 8.3-1 10.5-.2 2.2-.7 6.7-1 10-.2 3.3-.7 8-.9 10.5-.3 2.5-.8 7.2-1.1 10.5-.3 3.3-.8 7.8-1 10-.2 2.2-.7 7.1-1 11-.3 3.8-.8 8.1-1 9.5-.2 1.4-.7 6.1-1 10.5-.4 4.4-.9 9.1-1 10.5-.1 1.4-.6 6.1-.9 10.5-.4 4.4-.9 9.1-1.1 10.5-.2 1.4-.7 6.1-1 10.5-.3 4.4-.8 9.1-1 10.5-.3 1.4-.7 6.1-1.1 10.4-.3 4.4-.7 8.7-.9 9.6-.2.9-.6 5.6-1 10.6-.4 4.9-.8 10-1 11.4-.2 1.4-.6 5.4-1 9-.3 3.6-.8 8.5-1 11-.2 2.5-.7 7.4-1 11-.7 7.6-1.5 12.3-2 12.8-.2.2-1-.1-1.7-.7-.7-.7-4.1-3.2-7.6-5.7s-28.7-20.5-56-40.1-51-36.6-52.7-37.7c-1.6-1.2-10.8-7.7-20.4-14.6-9.5-6.9-19.2-13.8-21.5-15.4-2.2-1.6-13.3-9.5-24.6-17.6-11.3-8.1-30.6-22-43-30.8-12.4-8.9-23.4-16.8-24.5-17.6-4.7-3.4-55.1-39.5-60.9-43.6-17-12-25.6-18.3-25.3-18.6.2-.2 48.2-21.7 69.2-30.9 1.7-.7 9.7-4.3 18-8 8.2-3.7 15.8-7.1 17-7.5 1.1-.4 4.5-1.9 7.5-3.3s19.5-8.7 36.5-16.2c17.1-7.6 54.9-24.3 84-37.2 29.2-13 56.4-25 60.5-26.8 4.1-1.8 10-4.4 13-5.8 6.6-3 66.6-29.6 69.5-30.8 3.2-1.3 3.4-1.1 3 2.6zm25 18.1c5.8 9.5 5.7 9.3 21.6 34.1C615.4 303.4 673 394 673 394.7c0 .8-53.6 54.1-155.6 155l-18.3 18.1.4-5.1c.2-2.9.7-7.2.9-9.7.5-4.5 1.1-10.4 2.1-21 .3-3 .7-7.8 1-10.5.3-2.8.7-7.7 1-11 .3-3.3.8-8.3 1.1-11 .3-2.8.8-6.8.9-9 .2-2.2.6-6.7.9-10 .7-7.1 1.4-14.5 2-20 .3-2.2.8-7.2 1.1-11 .3-3.9.8-8.8 1-11 .2-2.2.7-6.7 1-10 .3-3.3.8-7.8 1-10 .6-5.9 1.5-15.2 2-21.5.4-5.9 1.4-15.3 2-21 .2-1.9.7-6.7 1.1-10.5.3-3.9.8-8.4 1-10 .2-1.7.6-6.4 1-10.5.7-9.1 1.2-14.1 1.8-20 .6-5.3 1.4-13.1 2.1-21.5.3-3.3.8-7.6 1-9.5.2-1.9.7-7.1 1.1-11.5.3-4.4.7-9.2.9-10.8.2-1.5.7-6.2 1-10.5.4-4.2.9-8.4 1-9.3.2-.8.6-5.5 1-10.5.4-4.9.8-10 1.1-11.4.2-1.4.6-6.1 1-10.5.3-4.4.7-8.7.9-9.5.2-.8.7-5.4 1-10.2.4-4.8.8-9.6 1-10.5.2-1 .4-3.3.4-5.1.1-1.7.4-3.2.9-3.2.4 0 2.5 3 4.7 6.6zM108.1 347c.4 2.5 1 7 1.3 10l2 16c.3 1.9.8 5.5 1.1 8 .3 2.5 1 7.6 1.5 11.5.6 3.8 1.2 9 1.5 11.5.3 2.5.8 6.5 1.1 9 .2 2.5.7 5.4.9 6.5.2 1.1.6 4.7 1 8 .3 3.3.8 6.9 1 8 .2 1.1 1.1 7.8 2 15 .9 7.1 1.8 14.1 2 15.5.2 1.4 1.6 11.7 3 23 2.5 20.1 3.1 25 4 30 .2 1.4.6 4.7.9 7.5.3 2.7.7 6.6 1 8.5.7 4.5 3.6 27.2 4.2 32.5.3 2.2.7 4.6.9 5.2.2.7.1 1.3-.4 1.3-.4 0-2.2-3-3.9-6.8-1.7-3.7-7-15-11.7-25.2-9.5-20.1-13.3-28.2-17.5-37.5-1.5-3.3-4.6-9.8-6.8-14.5-2.2-4.7-11.4-24.5-20.5-44s-18.1-38.9-20-43c-8.4-18-15.9-34.2-20.7-44.5-1.8-3.9-4.1-8.8-5.1-10.9-1-2.2-1.9-4.3-1.9-4.8s17.7-.7 39.2-.6l39.3.3.6 4.5zm47.4 25.1c10.5 7.4 42.2 30.1 70.5 50.4 28.3 20.3 53.1 38 55.1 39.4 2 1.4 21.6 15.5 43.5 31.2 22 15.7 45.1 32.3 51.4 36.8 6.3 4.6 12.4 8.9 13.5 9.7 1.1.8 13.9 10 28.5 20.5s29.5 21.1 33.2 23.7c3.7 2.6 6.5 4.8 6.4 5-.4.4-4.2 1.1-9.6 1.8-2.5.3-7 .9-10 1.4-3 .5-7.5 1.2-10 1.5-2.5.3-5.6.8-7 1-1.4.2-4.5.7-7 1-2.5.3-5.6.8-7 1-1.4.2-4.3.7-6.5 1-2.2.3-6.7 1-10 1.5s-8 1.2-10.5 1.5c-2.5.3-10.3 1.4-17.5 2.5-7.1 1-15 2.2-17.5 2.5-2.5.3-5.6.8-7 1-4 .7-30.3 4.5-33.5 4.9-3.2.4-10.3 1.5-14.5 2.1-1.4.2-4.5.7-7 1-2.5.3-5.6.8-7 1-1.4.3-9.1 1.4-17 2.5-15.1 2.1-15.6 2.2-31 4.5-5.2.7-11.5 1.6-14 2-2.5.3-5.6.8-7 1-3.6.7-7.8 1.3-13 2-5 .6-11.7 1.6-14.1 2-.9.2-4 .6-7 1s-5.7.9-6.1 1.1c-.3.2-1-2.2-1.4-5.3-.3-3.2-.8-6.5-.9-7.3-.2-.8-.6-4-.9-7-.4-3-.9-7.1-1.2-9.1-.2-2-.7-5.3-.9-7.3-.3-2-.7-5.2-1-7.2-.2-2-.7-5.3-.9-7.3-.3-2-1-7.4-1.6-12.1-.6-4.7-1.2-9.9-1.5-11.5-.2-1.7-.7-5.3-1-8-.4-2.8-.8-6.1-1-7.5-.2-1.4-.7-4.5-1-7-1.4-11.7-5.5-43.7-5.9-45.5-.2-1.1-.7-4.7-1-8-.4-3.3-.9-7.1-1.1-8.5-.6-3.9-3.7-28.1-4-31.6-.4-3-2.1-16.4-3-22.9-.2-1.7-.7-5.3-1-8-.4-2.8-.8-6.1-1-7.5-.2-1.4-.7-5.2-1-8.5-.4-3.3-.8-6.7-1-7.5-.2-.8-.7-4.2-1.1-7.5-.9-8.6-1.1-10.5-1.8-15-.4-2.2-.9-5.5-1.2-7.4l-.5-3.3 3.3 2.3c1.8 1.3 11.9 8.5 22.3 16zm430.9 144.6c-7.9 10.9-19.9 27.4-26.7 36.7-6.7 9.2-14.9 20.5-18.2 25.1-3.3 4.5-14.5 20-25 34.3-10.4 14.4-19.2 26.2-19.5 26.2-.3 0-.5-8.8-.5-19.6v-19.6l52-51.4c28.6-28.3 52.1-51.4 52.2-51.4.1 0-6.3 8.9-14.3 19.7zM475.6 634.4l.2 25.8-9.7-.7c-5.3-.3-10.9-.8-12.6-1-1.6-.2-6.6-.7-11-1.1-4.4-.3-9.6-.7-11.5-.9-1.9-.2-6.9-.6-11-.9-4.1-.4-9.5-.9-12-1.1-2.5-.2-7.9-.7-12-1-4.1-.3-9.5-.8-12-1.1-2.5-.2-7.4-.6-11-.9-7.4-.6-15-1.2-23-2-3-.2-8.4-.7-12-1-3.6-.3-8.1-.8-10-1-1.9-.2-7.5-.7-12.5-1-4.9-.3-10.1-.8-11.5-1-1.4-.2-6.5-.6-11.5-1-10.6-.8-14.6-1.1-24-2-8.6-.9-11.3-1.1-14.4-1.3-3.5-.3-2.3-.9 2.9-1.7 2.5-.3 5.6-.8 7-1 1.4-.2 4.5-.6 7-1 2.5-.3 5.6-.8 7-1 1.4-.2 4.3-.7 6.5-1 5.8-.7 31.5-4.5 35-5.1 1.7-.3 4.8-.7 7-.9 2.2-.3 5.1-.7 6.5-1 1.4-.3 4.1-.7 6-.9 1.9-.3 8.2-1.2 14-2.1 5.7-.9 12-1.8 14-2 1.9-.3 6.7-.9 10.5-1.5 3.9-.6 8.4-1.2 10-1.4 1.7-.3 9.5-1.4 17.5-2.6 8-1.2 16.3-2.3 18.5-2.6 2.2-.3 4.9-.7 6.1-.9 2-.4 10-1.6 20.4-3 2.5-.3 8.1-1.2 12.5-1.9s9.1-1.2 10.5-1.2l2.4.1.2 25.9z"/></svg>