<svg viewBox="0 0 901 901" xmlns="http://www.w3.org/2000/svg"><style>path {fill: #000;} @media (prefers-color-scheme: dark) {path {fill: #fff;}}</style><clipPath id="a"><path d="M0 0h900v900H0z"/></clipPath><g clip-path="url(#a)"><path d="M710 112l190 400-267 367-440-38L0 426 265 21l445 91zM320 825l292 25v-68l-292 43zm319-53v52l136-186-136 134zm-425 41l376-55-423-303 47 358zM37 440l141 303-40-303H37zm140-11l437 313 51-529-488 216zm465 302l225-223-177-276-48 499zM40 413h100l90-289L40 413zm132-11l473-210L279 54 172 402zm523-213l85 132-76-160-9 28zm-23-15l12-40-252-51 240 91z"/></g></svg>
